<?xml version="1.0" encoding="UTF-8"?>
<svg id="OBJECTS" xmlns="http://www.w3.org/2000/svg" xmlns:xlink="http://www.w3.org/1999/xlink" viewBox="0 0 500 500">
  <defs>
    <style>
      .cls-1 {
        fill: #f7cd59;
      }

      .cls-1, .cls-2 {
        opacity: .94;
      }

      .cls-3 {
        stroke: #f99f87;
      }

      .cls-3, .cls-4, .cls-5, .cls-6, .cls-7, .cls-2, .cls-8, .cls-9, .cls-10, .cls-11, .cls-12, .cls-13, .cls-14, .cls-15, .cls-16, .cls-17, .cls-18, .cls-19, .cls-20, .cls-21, .cls-22, .cls-23, .cls-24, .cls-25 {
        fill: none;
      }

      .cls-3, .cls-4, .cls-6, .cls-7, .cls-2, .cls-8, .cls-9, .cls-10, .cls-11, .cls-12, .cls-13, .cls-18, .cls-19, .cls-20, .cls-22, .cls-23, .cls-24, .cls-25 {
        stroke-miterlimit: 10;
      }

      .cls-26 {
        opacity: .69;
      }

      .cls-27 {
        fill: #fff;
      }

      .cls-28 {
        fill: #ffcda9;
      }

      .cls-29 {
        fill: #3a497d;
      }

      .cls-30 {
        fill: #0e141f;
      }

      .cls-4 {
        stroke-width: .74px;
      }

      .cls-4, .cls-19 {
        stroke: #202845;
      }

      .cls-31 {
        fill: #131a29;
      }

      .cls-5 {
        stroke-width: .67px;
      }

      .cls-5, .cls-6, .cls-8, .cls-9, .cls-10, .cls-12, .cls-15, .cls-22, .cls-25 {
        stroke: #fff;
      }

      .cls-5, .cls-14, .cls-15, .cls-16, .cls-21 {
        stroke-linecap: round;
        stroke-linejoin: round;
      }

      .cls-6 {
        stroke-width: 1.61px;
      }

      .cls-7 {
        stroke-width: .32px;
      }

      .cls-7, .cls-13 {
        stroke: #202b44;
      }

      .cls-32 {
        fill: #f99f87;
      }

      .cls-33 {
        fill: #f9caaa;
      }

      .cls-34 {
        fill: #131829;
      }

      .cls-35 {
        fill: #29292d;
      }

      .cls-2 {
        stroke: #f7cd59;
      }

      .cls-2, .cls-21, .cls-23 {
        stroke-width: 1.05px;
      }

      .cls-36 {
        fill: #f78c77;
      }

      .cls-8 {
        stroke-width: .53px;
      }

      .cls-37 {
        fill: #d3daf8;
      }

      .cls-9 {
        stroke-width: .25px;
      }

      .cls-38 {
        fill: #ea6c5c;
      }

      .cls-10 {
        stroke-width: 1.09px;
      }

      .cls-39 {
        fill: #edf0fc;
      }

      .cls-11 {
        stroke-width: .64px;
      }

      .cls-11, .cls-24 {
        stroke: #3d9988;
      }

      .cls-40 {
        fill: #4d66ca;
      }

      .cls-12 {
        stroke-width: .57px;
      }

      .cls-41 {
        fill: #202b44;
      }

      .cls-13 {
        stroke-width: .3px;
      }

      .cls-14 {
        stroke: #0d1430;
      }

      .cls-14, .cls-16 {
        stroke-width: .96px;
      }

      .cls-42 {
        fill: #41a89c;
      }

      .cls-43 {
        fill: #f48061;
      }

      .cls-44 {
        clip-path: url(#clippath);
      }

      .cls-45 {
        fill: #18285f;
      }

      .cls-15 {
        stroke-width: 2.53px;
      }

      .cls-16 {
        stroke: #1e2e6e;
      }

      .cls-46 {
        fill: #fca290;
      }

      .cls-47 {
        fill: #53d6c7;
      }

      .cls-18 {
        stroke: #225751;
        stroke-width: 1.13px;
      }

      .cls-48 {
        fill: #f7b097;
      }

      .cls-19 {
        stroke-width: .48px;
      }

      .cls-49 {
        fill: #ffccb2;
      }

      .cls-50 {
        fill: #ef7e6f;
      }

      .cls-20, .cls-23 {
        stroke: #4dc7b8;
      }

      .cls-21 {
        stroke: #29292d;
      }

      .cls-22 {
        stroke-width: .72px;
      }

      .cls-51 {
        fill: #fdf2e8;
      }

      .cls-52 {
        fill: #506de4;
      }

      .cls-53 {
        fill: #929396;
      }

      .cls-24 {
        stroke-width: .42px;
      }

      .cls-25 {
        stroke-width: .27px;
      }
    </style>
    <clipPath id="clippath">
      <polyline class="cls-17" points="500 0 500 500 0 500 0 0"/>
    </clipPath>
  </defs>
  <g class="cls-44">
    <g>
      <path class="cls-39" d="m62.49,399.16S115.22,66.64,193.71,156.06c78.49,89.42,89.86,243.1,89.86,243.1,0,0,8.1-257.21,87.01-244.79,78.91,12.42,60.31,253.99,60.31,253.99l-368.4-9.2Z"/>
      <path class="cls-51" d="m39.95,391.06c1.46,3.68,3.53,7.24,6.02,10.48,12.32,16.01,32.53,27.05,53.08,34.62,54.95,20.25,116.92,21.16,176.96,23.5,30.01,1.17,60.19,2.77,90.02-.21,29.83-2.98,59.68-10.89,82.88-26.76,8.93-6.11,16.83-13.42,22.1-21.98,10.08-16.38,9.31-34.89,9.47-52.75.11-11.49-2.17-23.39-13.22-31.43-18.1-13.17-46.6-9.01-68.59-9.12-34.3-.17-22.55,15.84-92.37-18.84-69.82-34.68-90.49-61.95-124.37-16.86-33.87,45.09-80.31,51.33-129.46,75.42-15.53,7.61-17.46,21.48-12.52,33.94Z"/>
    </g>
  </g>
  <g>
    <g>
      <g>
        <path class="cls-42" d="m194.52,165.03c-9.22,3.12-15.72,11.61-10.05,20.99,4.22,6.99.64,11.9-3.88,17.4-1.65,2.01-2.98,4.71-2.08,7.15,3.06,8.22,14.83,5.04,13.49,16.46-.29,2.53-.85,5.12-.22,7.58.61,2.37,2.28,4.36,4.26,5.79,4.5,3.26,11.54,4.27,16.8,2.52,2.61-.87,4.88-2.45,6-5.03,1.77-4.05-.8-8.04.03-12.15.68-3.36,3.16-6.02,5.97-7.83,2.29-1.48,4.71-2.8,6.66-4.71,5.16-5.04,3.1-10.74-2.15-14.59-2.58-1.9-5.62-3.28-8.43-4.8-1.78-.96-3.53-2.2-4.35-4.05-2.54-5.7,7.39-6.92,6.04-12.97-2.79-12.51-17.52-15.36-28.1-11.79Z"/>
        <line class="cls-18" x1="204.69" y1="182.39" x2="204.69" y2="261.31"/>
      </g>
      <g>
        <path class="cls-42" d="m336.84,160.23c-9.22,3.12-15.72,11.61-10.05,20.99,4.22,6.99.64,11.9-3.88,17.4-1.65,2.01-2.98,4.71-2.08,7.15,3.06,8.22,14.83,5.04,13.49,16.46-.29,2.53-.85,5.12-.22,7.58.61,2.37,2.28,4.36,4.26,5.79,4.5,3.26,11.54,4.27,16.8,2.52,2.61-.87,4.88-2.45,6-5.03,1.77-4.05-.8-8.04.03-12.15.68-3.36,3.16-6.02,5.97-7.83,2.29-1.48,4.71-2.8,6.66-4.71,5.16-5.04,3.1-10.74-2.15-14.59-2.58-1.9-5.62-3.28-8.43-4.8-1.78-.96-3.53-2.2-4.35-4.05-2.54-5.7,7.39-6.92,6.04-12.97-2.79-12.51-17.52-15.36-28.1-11.79Z"/>
        <line class="cls-18" x1="347.01" y1="177.59" x2="347.01" y2="256.51"/>
      </g>
    </g>
    <g>
      <path class="cls-37" d="m414.1,190.98l6.11-.42-.24-3.54c1.15-.38,2.21-.91,3.18-1.58l2.68,2.33,4.02-4.62-2.68-2.33c.53-1.05.91-2.18,1.13-3.37l3.54-.24-.42-6.11-3.54.24c-.38-1.15-.91-2.21-1.58-3.18l2.33-2.68-4.62-4.02-2.33,2.68c-1.05-.53-2.18-.91-3.37-1.13l-.24-3.54-6.11.42.24,3.54c-1.15.38-2.21.91-3.18,1.58l-2.68-2.33-4.02,4.62,2.68,2.33c-.53,1.05-.91,2.18-1.13,3.37l-3.54.24.42,6.11,3.54-.24c.38,1.15.91,2.21,1.58,3.18l-2.33,2.68,4.62,4.02,2.33-2.68c1.05.53,2.18.91,3.37,1.13l.24,3.54Zm1.74-21.93c3.71-.14,6.82,3.01,6.39,6.92-.28,2.48-2.15,4.63-4.57,5.25-3.81.97-7.37-1.68-7.73-5.37-.14-3.47,2.46-6.45,5.92-6.79Z"/>
      <path class="cls-37" d="m447.46,176.92l3.54-.24-.14-2.05c.66-.22,1.28-.53,1.84-.92l1.55,1.35,2.33-2.67-1.55-1.35c.31-.61.53-1.26.65-1.95l2.05-.14-.24-3.54-2.05.14c-.22-.66-.53-1.28-.92-1.84l1.35-1.55-2.67-2.33-1.35,1.55c-.61-.31-1.26-.53-1.95-.65l-.14-2.05-3.54.24.14,2.05c-.66.22-1.28.53-1.84.92l-1.55-1.35-2.33,2.67,1.55,1.35c-.31.61-.53,1.26-.65,1.95l-2.05.14.24,3.54,2.05-.14c.22.66.53,1.28.92,1.84l-1.35,1.55,2.67,2.33,1.35-1.55c.61.31,1.26.53,1.95.65l.14,2.05Zm1.01-12.7c2.15-.08,3.95,1.75,3.7,4.01-.16,1.44-1.24,2.68-2.64,3.04-2.2.56-4.26-.97-4.48-3.11-.08-2.01,1.42-3.74,3.42-3.93Z"/>
      <path class="cls-37" d="m444.74,198.43l2.89-.2-.12-1.67c.54-.18,1.05-.43,1.5-.75l1.27,1.1,1.9-2.18-1.27-1.1c.25-.5.43-1.03.53-1.59l1.67-.12-.2-2.89-1.67.12c-.18-.54-.43-1.05-.75-1.5l1.1-1.27-2.18-1.9-1.1,1.27c-.5-.25-1.03-.43-1.59-.53l-.12-1.67-2.89.2.12,1.67c-.54.18-1.05.43-1.5.75l-1.27-1.1-1.9,2.18,1.27,1.1c-.25.5-.43,1.03-.53,1.59l-1.67.12.2,2.89,1.67-.12c.18.54.43,1.05.75,1.5l-1.1,1.27,2.18,1.9,1.1-1.27c.5.25,1.03.43,1.59.53l.12,1.67Zm.82-10.37c1.75-.07,3.23,1.43,3.02,3.27-.13,1.17-1.02,2.19-2.16,2.48-1.8.46-3.48-.8-3.66-2.54-.07-1.64,1.16-3.05,2.8-3.21Z"/>
    </g>
    <g>
      <path class="cls-37" d="m61.74,334.91l.96-6.05-3.5-.55c-.11-1.2-.39-2.36-.83-3.45l2.87-2.09-3.6-4.95-2.87,2.09c-.9-.75-1.92-1.38-3.03-1.85l.55-3.5-6.05-.96-.55,3.5c-1.2.11-2.36.39-3.45.83l-2.09-2.87-4.95,3.6,2.09,2.87c-.75.9-1.38,1.92-1.86,3.03l-3.5-.55-.96,6.05,3.5.55c.11,1.2.39,2.36.83,3.45l-2.87,2.09,3.6,4.95,2.87-2.09c.9.75,1.92,1.38,3.03,1.85l-.55,3.5,6.05.96.55-3.5c1.2-.11,2.36-.39,3.45-.83l2.09,2.87,4.95-3.6-2.09-2.87c.75-.9,1.38-1.92,1.86-3.03l3.5.55Zm-20.98-6.61c.69-3.64,4.46-5.97,8.17-4.68,2.36.83,4.03,3.13,4.09,5.63.09,3.93-3.29,6.8-6.97,6.33-3.42-.64-5.74-3.84-5.3-7.29Z"/>
      <path class="cls-37" d="m55.5,299.26l.55-3.5-2.03-.32c-.06-.7-.23-1.37-.48-2l1.66-1.21-2.08-2.87-1.66,1.21c-.52-.44-1.11-.8-1.75-1.07l.32-2.03-3.5-.55-.32,2.03c-.7.06-1.37.23-2,.48l-1.21-1.66-2.87,2.08,1.21,1.66c-.44.52-.8,1.11-1.07,1.75l-2.03-.32-.55,3.5,2.03.32c.06.7.23,1.37.48,2l-1.66,1.21,2.08,2.87,1.66-1.21c.52.44,1.11.8,1.75,1.07l-.32,2.03,3.5.55.32-2.03c.7-.06,1.37-.23,2-.48l1.21,1.66,2.87-2.08-1.21-1.66c.44-.52.8-1.11,1.07-1.75l2.03.32Zm-12.15-3.83c.4-2.11,2.58-3.46,4.73-2.71,1.37.48,2.34,1.81,2.37,3.26.05,2.27-1.9,3.94-4.03,3.67-1.98-.37-3.32-2.22-3.07-4.22Z"/>
      <path class="cls-37" d="m75.86,306.72l.45-2.86-1.66-.26c-.05-.57-.19-1.12-.39-1.63l1.36-.99-1.7-2.34-1.36.99c-.43-.36-.91-.65-1.43-.88l.26-1.66-2.86-.45-.26,1.66c-.57.05-1.12.19-1.63.39l-.99-1.36-2.34,1.7.99,1.36c-.36.43-.65.91-.88,1.43l-1.66-.26-.45,2.86,1.66.26c.05.57.19,1.12.39,1.63l-1.36.99,1.7,2.34,1.36-.99c.43.36.91.65,1.43.88l-.26,1.66,2.86.45.26-1.66c.57-.05,1.12-.19,1.63-.39l.99,1.36,2.34-1.7-.99-1.36c.36-.43.65-.91.88-1.43l1.66.26Zm-9.92-3.12c.33-1.72,2.11-2.82,3.87-2.21,1.12.39,1.91,1.48,1.94,2.66.04,1.86-1.56,3.22-3.3,3-1.62-.3-2.72-1.81-2.5-3.45Z"/>
    </g>
    <g>
      <path class="cls-49" d="m318.85,189.65s-4.67-4.21-5.33-10.24c-.13-1.15,1.3-1.81,2.12-.99l4.22,4.17-2.41-4.69s1.74-.73,3.32,2.15l.47.83c.55.97,1.2,1.88,1.87,2.78.54.74,1.09,1.93.64,3.39l-4.88,2.6Z"/>
      <path class="cls-31" d="m324.48,186.36c-.18.09,4.57,5.8,5,6.26,5.07,5.41,10.87,10.05,17.85,12.7,6.83,2.59,14.32,3.31,21.51,2.06,1.47-.26,2.92-.59,4.36-1.01,0,0,5.87-2.69,8.87-.67,5.85,3.92,3.25,11.02-1.49,13.65-.58.32-1.42.68-2.46,1.07-18.23,6.8-38.73.14-49.98-15.73-2.61-3.68-5.38-7.74-8.24-12.18l-1.74-3.07s6.32-3.08,6.33-3.08Z"/>
      <line class="cls-13" x1="325.39" y1="188.9" x2="320.22" y2="191.22"/>
    </g>
    <g>
      <g>
        <g>
          <path class="cls-29" d="m411.06,348.12s24.43-53.48,12.21-86.47l-15.4,10.65,11.43-24.78s-30.72-31.48-53.93,2.84l17.95,13.22-22.31-.97,2.32,19.83,26.48,12.87-20.11-.38s15.56,36.78,41.36,53.19Z"/>
          <line class="cls-4" x1="397.03" y1="266.72" x2="414.05" y2="367.67"/>
        </g>
        <g>
          <path class="cls-23" d="m417.49,353.86s37.71-22.93,44.02-48.57l-14.05.13,17.54-10.57s-5.81-32.5-34.69-20.96l5.58,15.78-13.45-10-6.92,13.3,11.02,19.15-12.33-8.71s-5.83,29.4,3.28,50.46Z"/>
          <line class="cls-11" x1="443.07" y1="297.38" x2="411.11" y2="367.26"/>
        </g>
      </g>
      <path class="cls-51" d="m397.03,369.18s18.83-17.54,30.06,1.45c11.24,18.99-30.06-1.45-30.06-1.45Z"/>
    </g>
    <g>
      <g>
        <g>
          <path class="cls-49" d="m136.26,201.08c-.36-1.21-.65-2.45-.85-3.7-.63-4.04-1.88-8.78-4.4-10.31-2.99-1.82-7.08-1.68-10.26-.44-6.8,2.66-6.36,10.95-7.06,17.04-.12,1.07-1.93,14.65-.93,14.78l9.36,1.27s.7-6.23,1.78-7.89c.17-.27.51-.36.81-.25,1.04.38,3.97,1.39,5.68,1.49,1.77.11,3.46-6.67,3.96-8.84.09-.37.44-.62.82-.56l1.39.19c.27.04.48-.21.4-.46-.19-.59-.44-1.44-.71-2.33Z"/>
          <path class="cls-49" d="m177.34,240.17s6.51-.65,10.79-5.3c.81-.89.03-2.32-1.16-2.14l-6.11.9,4.91-2.45s-1.01-1.68-4.11-.24l-.9.41c-1.06.48-2.17.83-3.28,1.18-.91.28-2.11.94-2.62,2.45l2.49,5.19Z"/>
          <path class="cls-40" d="m112.31,225.9c.86-3.87,7.1-10.02,17.01-1.28,11.86,10.46,23.9,16.9,45.53,10.36l2.49,5.19s-18.18,18.08-52.11,2.56c-9.91-4.53-14.35-10.44-12.92-16.83Z"/>
          <path class="cls-27" d="m114.72,215.54h0c-4.65-.31-9.16,3.26-8.83,7.92,1.99,28.4-8.09,52.84-8.09,52.84h31.5s-2.74-25.38-2.04-27.26c.36-.96,2.43-2.11,4.36-3.97,3.1-2.99,3.43-7.86.9-11.35l-9.73-13.4c-1.77-2.79-4.77-4.57-8.06-4.79Z"/>
          <path class="cls-40" d="m111.6,216.05l.18-.95c-1.12.5,5.91-2.19,11.03,2.64l.47,3.37s-4.66-3.98-11.68-5.06Z"/>
          <path class="cls-34" d="m123.33,276.3h5.97l-3.36,103.6h-4.46s-8.04-32.28-5.89-53.57c1.85-24.52-2.11-35.14-2.11-35.14l9.84-14.89"/>
          <path class="cls-41" d="m126.05,276.3l-8.36,47.35c-.16.93-.51,1.81-1.03,2.6l-29.3,45-4.61-1.92s10.24-30.5,21.54-47.05c.93-1.36,1.22-3.05.82-4.64l-5.29-21.23c-.04-.17-.09-.33-.14-.49-.45-1.41-2.99-10-1.89-19.61h28.25Z"/>
          <polygon class="cls-33" points="121.48 379.9 120.97 377.74 126.05 377.74 125.94 379.9 121.48 379.9"/>
          <polygon class="cls-33" points="82.75 369.32 87.36 371.25 88.79 369.06 83.52 367.11 82.75 369.32"/>
          <path class="cls-52" d="m122.15,225.53l-.76,50.76h-23.59s9.08-29.46,8.24-40.26c-.85-10.8-2.74-18.02,5.56-19.98.08-.02.17-.04.25-.06,5.77-1.26,11.01,3.68,10.3,9.54Z"/>
          <polygon class="cls-40" points="130.78 276.3 127.25 249.04 127.25 276.3 130.78 276.3"/>
          <g>
            <path class="cls-49" d="m157.8,268.96s6.1,2.36,12.02.14c1.13-.42,1.07-2.05-.07-2.44l-5.86-1.96,5.49.04s-.14-1.95-3.55-2.07l-.99-.04c-1.16-.05-2.31-.24-3.46-.43-.94-.16-2.3-.11-3.45,1l-.12,5.76Z"/>
            <path class="cls-52" d="m106.29,224.12c2.64-2.96,11.07-5.31,15.49,7.15,5.28,14.9,14.06,27.15,36.14,31.94l-.12,5.76s-26.28,6.2-48.39-23.85c-6.46-8.77-7.47-16.1-3.12-20.99Z"/>
          </g>
          <path class="cls-43" d="m102.67,210.32c-.02.31-.02.62-.01.93.03-.02.06-.04.09-.06-.04-.28-.06-.57-.08-.87Z"/>
          <path class="cls-43" d="m108.29,196.9c-.02-.38-.03-.79-.04-1.21-.01.88,0,1.71.04,2.44.01.26.02.5.03.72.02-.53,0-1.15-.03-1.95Z"/>
          <path class="cls-43" d="m120.54,201.69c.36,1.11.84,3.26.93,5.59.06-2.08-.25-4.13-.59-5.58-.02,0-.04,0-.07,0-.09,0-.18-.01-.27-.02Z"/>
          <path class="cls-36" d="m141.4,189.42c-.66-2.48-2.84-4.18-5.55-4.32-1.36-2.58-4.26-5.27-9.7-5.52-.63-.03-1.3-.03-2.01.02-10.5.61-15.61,9.3-15.88,15.28-.01.29,0,.54,0,.81.01.42.03.84.04,1.21.03.81.05,1.43.03,1.95.07,2.14-.08,2.88-1.38,3.96-3.1,2.58-4.12,5.17-4.27,7.5.02.29.04.58.08.87-.03.02-.06.04-.09.06.01.4.04.79.09,1.17-.08.05-.16.1-.24.15-2.76,1.7-8.52,5.25-9.16,15.57-.04.62-.04,1.21-.05,1.8-.16,12.89,6.66,20.06,6.97,20.37l3.44,3.62,1.68-4.45c.15-.3,3.61-7.59,4.26-18.92.48-8.32,2.57-13.76,5.32-13.85,2.03-.07,3.79-1,4.94-2.63,1.32-1.87,1.65-4.43,1.57-6.81-.08-2.33-.57-4.48-.93-5.59.09.01.18.02.27.02.02,0,.04,0,.07,0-.11-.49-.23-.92-.34-1.25.09.01.18.02.27.02,1.44.07,2.84-.62,3.85-1.89.87-1.09,1.4-2.51,1.53-3.92.05-.58.04-1.15-.04-1.7-.04-.26-.09-.52-.16-.76-.01-.14.03-.33.09-.54,1.77,1.9,4.7,4.35,8.14,4.51h0c1.51.07,2.93-.3,4.22-1.11,1.82-1.14,2.93-2.89,3.12-4.77-.03-.29-.08-.59-.16-.88Z"/>
          <path class="cls-27" d="m120.01,265.66c0,.38-.31.69-.69.69s-.69-.31-.69-.69.31-.69.69-.69.69.31.69.69Z"/>
          <path class="cls-27" d="m120.01,270.46c0,.38-.31.69-.69.69s-.69-.31-.69-.69.31-.69.69-.69.69.31.69.69Z"/>
          <path class="cls-25" d="m116,282s-4.11,6.4-11.6,7.77"/>
          <g>
            <line class="cls-25" x1="156.07" y1="263.61" x2="156.07" y2="268.06"/>
            <line class="cls-25" x1="154.79" y1="263.18" x2="154.79" y2="268.49"/>
          </g>
          <g>
            <line class="cls-25" x1="173.57" y1="236.18" x2="175.72" y2="240.08"/>
            <line class="cls-25" x1="172.24" y1="236.43" x2="174.81" y2="241.07"/>
          </g>
          <path class="cls-27" d="m110.57,246.26c.86,1.06,1.74,2.09,2.63,3.12.89,1.03,1.79,2.05,2.72,3.04,1.83,2.01,3.77,3.91,5.8,5.74-1.08-.83-2.12-1.71-3.12-2.65-.99-.93-1.95-1.91-2.88-2.9-1.84-2.02-3.6-4.11-5.15-6.34Z"/>
          <path class="cls-27" d="m122.22,232.48c-.41-.7-.72-1.43-1.04-2.17-.29-.75-.59-1.49-.79-2.27.41.7.72,1.43,1.04,2.17.29.75.59,1.49.79,2.27Z"/>
          <path class="cls-27" d="m112.78,249.04c-.5-.05-.96-.2-1.43-.34-.46-.17-.92-.33-1.34-.6.5.05.96.2,1.43.34.46.17.92.34,1.34.6Z"/>
          <path class="cls-25" d="m99.42,274.11c6.3.61,12.11.61,17.42,0"/>
          <line class="cls-25" x1="106.13" y1="274.57" x2="109.39" y2="253.93"/>
          <g>
            <path class="cls-34" d="m131.91,199.57c-.09.64-.49,1.12-.9,1.06-.41-.06-.66-.62-.58-1.27.09-.64.49-1.12.9-1.06.41.06.66.62.58,1.27Z"/>
            <path class="cls-36" d="m132.61,197.54c-.33-.02-.59-.06-.85-.11-.26-.05-.49-.2-.75-.28-.52-.15-1.07-.25-1.65-.28-.02,0-.03-.02-.03-.04,0-.02.01-.03.02-.03.56-.17,1.15-.24,1.76-.19.3.02.62.03.9.19.27.16.52.37.65.7,0,.02,0,.04-.02.05,0,0-.01,0-.02,0h0Z"/>
            <path class="cls-48" d="m135.06,203.68s-.96-.91-1.11-1.21c-.15-.3.13.93.54,1.49l.58-.28Z"/>
            <path class="cls-14" d="m132.83,206.91s-1.74-.14-2.16-1.56"/>
          </g>
          <path class="cls-35" d="m121.31,379.82l4.79-.3s9.97,2.56,12.67,5.16c.76.73.28,2.02-.77,2.08-2.61.15-9.65.29-11.61-.54l-.17.68-5.09-.38.19-6.69Z"/>
          <path class="cls-35" d="m83.01,368.69l4.4,1.92s7.71,6.82,8.92,10.37c.34,1-.67,1.92-1.63,1.5-2.39-1.06-8.72-4.14-10.09-5.77l-.46.53-4.36-2.66,3.22-5.87Z"/>
        </g>
        <g>
          <path class="cls-41" d="m186.82,224.48h.69c.52,0,.95.43.95.95v12.87h-2.59v-12.87c0-.52.43-.95.95-.95Z" transform="translate(28.54 483.21) rotate(-108.82)"/>
          <path class="cls-41" d="m194.13,230.39l2.24-1.86c.2-.16.09-.48-.17-.49l-2.9-.1.84,2.45Z"/>
          <polygon class="cls-28" points="195.51 229.24 194.13 230.39 193.29 227.94 195.08 228 195.51 229.24"/>
        </g>
      </g>
      <g>
        <g>
          <g>
            <g>
              <g>
                <polygon class="cls-46" points="265.27 200.73 171.24 256.49 265.27 307.88 359.29 256.49 265.27 200.73"/>
                <polygon class="cls-32" points="171.24 256.49 171.24 359.81 265.27 411.56 265.27 307.88 171.24 256.49"/>
                <polygon class="cls-36" points="359.29 256.49 359.29 359.81 265.27 411.56 265.27 307.88 359.29 256.49"/>
              </g>
              <polyline class="cls-10" points="171.24 256.49 265.27 307.88 359.29 256.49"/>
              <line class="cls-10" x1="265.27" y1="307.88" x2="265.27" y2="413.32"/>
            </g>
            <g>
              <ellipse class="cls-36" cx="200.49" cy="315.57" rx="17.43" ry="20.08" transform="translate(-95.02 86.55) rotate(-19.8)"/>
              <path class="cls-38" d="m189.75,324.6c-3.76-10.44.54-21.54,9.6-24.8,3.47-1.25,7.14-1.16,10.55.01-4.7-3.73-10.7-5.12-16.21-3.14-9.06,3.26-13.36,14.36-9.6,24.8,2.32,6.44,7.16,11.11,12.65,12.98-3.03-2.4-5.53-5.77-7-9.86Z"/>
              <ellipse class="cls-10" cx="200.49" cy="315.57" rx="17.43" ry="20.08" transform="translate(-95.02 86.55) rotate(-19.8)"/>
            </g>
            <g>
              <ellipse class="cls-50" cx="327.74" cy="325.03" rx="22.28" ry="19.34" transform="translate(-89.08 523.33) rotate(-70.2)"/>
              <path class="cls-38" d="m339.67,335.05c4.17-11.58-.6-23.9-10.65-27.51-3.85-1.39-7.92-1.28-11.71.01,5.22-4.14,11.87-5.68,17.98-3.48,10.05,3.62,14.82,15.93,10.65,27.51-2.57,7.14-7.94,12.32-14.03,14.4,3.36-2.67,6.13-6.4,7.76-10.93Z"/>
              <ellipse class="cls-10" cx="327.74" cy="325.03" rx="22.28" ry="19.34" transform="translate(-89.08 523.33) rotate(-70.2)"/>
            </g>
            <g>
              <path class="cls-36" d="m246.75,361.23c2.47,6.86-.36,14.15-6.31,16.3-5.95,2.14-12.78-1.68-15.25-8.54-2.47-6.86.36-14.15,6.31-16.3,5.95-2.14,12.78,1.68,15.25,8.54Z"/>
              <path class="cls-38" d="m228.91,371.04c-2.47-6.86.36-14.15,6.31-16.3,2.28-.82,4.69-.76,6.93,0-3.09-2.45-7.03-3.37-10.65-2.06-5.95,2.14-8.78,9.44-6.31,16.3,1.52,4.23,4.7,7.3,8.31,8.53-1.99-1.58-3.63-3.79-4.6-6.48Z"/>
              <path class="cls-22" d="m246.75,361.23c2.47,6.86-.36,14.15-6.31,16.3-5.95,2.14-12.78-1.68-15.25-8.54-2.47-6.86.36-14.15,6.31-16.3,5.95-2.14,12.78,1.68,15.25,8.54Z"/>
            </g>
            <line class="cls-12" x1="228.34" y1="232.58" x2="197.91" y2="250.63"/>
            <line class="cls-12" x1="229.85" y1="226.4" x2="180.92" y2="255.43"/>
          </g>
          <g>
            <path class="cls-41" d="m288.37,250.38c-15.35,2.83-30.59,2.88-45.73,0h0c0-5.89,4.78-10.67,10.67-10.67h24.38c5.89,0,10.67,4.78,10.67,10.67h0Z"/>
            <g>
              <g class="cls-26">
                <path class="cls-1" d="m263.84,109.55c-26.76.73-48.71,22.11-50.13,48.85-.81,15.19,5.08,29.04,14.81,38.96,5.41,5.51,8.39,12.95,8.39,20.68v.09c0,7.15,3.22,13.63,8.32,17.89h40.08c5.09-4.25,8.31-10.68,8.31-17.83v-.03c0-7.86,3.18-15.35,8.67-20.98,9.07-9.3,14.59-22,14.59-36.01,0-28.99-23.88-52.41-53.05-51.62Z"/>
              </g>
              <path class="cls-15" d="m282.63,116.79s34.96,14.22,26.52,55.98"/>
              <path class="cls-6" d="m269.47,236.02v-48.37c0-3.9,3.16-7.06,7.06-7.06h1.68c3.9,0,7.06,3.16,7.06,7.06h0c0,3.9-3.16,7.06-7.06,7.06h-13.82,1.76-13.82c-3.9,0-7.06-3.16-7.06-7.06h0c0-3.9,3.16-7.06,7.06-7.06h1.68c3.9,0,7.06,3.16,7.06,7.06v48.37"/>
            </g>
            <g>
              <path class="cls-53" d="m284.46,242.48h-38.39c-1.89,0-3.43-1.53-3.43-3.43h0c0-1.89,1.53-3.43,3.43-3.43h38.39c1.89,0,3.43,1.53,3.43,3.43h0c0,1.89-1.53,3.43-3.43,3.43Z"/>
              <g>
                <line class="cls-5" x1="245.91" y1="238.1" x2="284.76" y2="238.1"/>
                <line class="cls-5" x1="245.78" y1="240.28" x2="284.62" y2="240.28"/>
              </g>
            </g>
          </g>
        </g>
        <g>
          <path class="cls-49" d="m347.42,179.16l1.92-2.37c1.2-1.48,2.2-3.12,2.99-4.85.87-1.91,1.59-3.17,1.86-3.62.07-.11.2-.15.32-.1,7.29,3.15,13.5,2.33,14.85,2.09.16-.03.3.07.33.23l.84,3.97c.03.13-.04.25-.16.31-2.55,1.3-2.88,5.61-2.88,5.61l.49-.76c.7-1.1,1.98-1.8,3.27-1.58.89.15,1.53.76,1,2.35-.93,2.77-3.41,3.29-4.03,3.38-.09.01-.17.07-.21.16l-1.4,2.79,1.93.34c.14.02.24.15.24.29v6.56c0,.1-.06.2-.14.25l-8.65,5.06c-.19.11-.44-.03-.44-.25v-9.26c0-.16-.13-.29-.29-.29-4.6-.05-7.73-1.18-9.48-2.07-1.03-.52-1.6-1.66-1.39-2.8.3-1.65.66-3.2,1.06-4.65.04-.16-.05-.31-.21-.35l-1.81-.44Z"/>
          <path class="cls-30" d="m370.29,195.7l-.73-4.37s-7.15.61-10.97,5.55l-.38,2.08s7.1-2.48,12.08-3.27Z"/>
          <g>
            <path class="cls-52" d="m386.28,261.32s-25.97,1.62-34.4-3.25c0,0,13.57,50.84,17.2,61.12s9.94,43,9.94,43h5.76s.56-46.24-5.76-55.98c0,0,9.13-41.65,7.25-44.89Z"/>
            <polygon class="cls-52" points="351.88 258.08 354.86 314.6 359.62 359.3 366.16 359.22 367.3 313.62 351.88 258.08"/>
          </g>
          <path class="cls-41" d="m386.65,262.49l-34.87.61s-.47-27.81,4.63-59.59c.54-3.39,2.8-9.66,10.47-8.87,6.96.71,11.25,8.89,14.2,19.88,4.75,17.68,5.57,47.97,5.57,47.97Z"/>
          <path class="cls-9" d="m371.14,266.59s4.56,4.78,9.76,6.37"/>
          <line class="cls-9" x1="358.29" y1="270.73" x2="368.48" y2="309.42"/>
          <line class="cls-9" x1="371.03" y1="318.49" x2="378.51" y2="351.77"/>
          <path class="cls-35" d="m384.78,361.52l-6.25.09s-14.5,3.69-11.59,6.8c0,0,9.78.7,12.26-.35l.65.56,5.63-.42-.7-6.68Z"/>
          <path class="cls-35" d="m366.19,359.11l-6.25.09s-14.5,3.69-11.59,6.8c0,0,9.78.7,12.26-.35l.65.56,5.63-.42-.7-6.68Z"/>
          <path class="cls-34" d="m355.47,176.76c-.2.61-.06,1.2.33,1.33.38.13.86-.26,1.06-.87.2-.61.06-1.2-.33-1.33-.38-.13-.86.26-1.06.87Z"/>
          <path class="cls-21" d="m355.93,174.46c0-.06,1.21-.35,3.16.63"/>
          <path class="cls-48" d="m349.09,179.56s1.26-.69,1.5-.96c.24-.27-.39.94-.97,1.42l-.53-.46Z"/>
          <path class="cls-21" d="m351.19,181.96s2.44,1.03,4-.58"/>
          <path class="cls-34" d="m368.15,181.75c-.07.25,0,.5.18.55.17.05.36-.12.44-.37.07-.25,0-.5-.18-.55-.17-.05-.36.12-.44.37Z"/>
          <path class="cls-35" d="m351.77,165.65c-.37-4.3,7.16-4.78,14.07-4.09,6.91.69,8.24,4.69,8.24,4.69,4.5,2.9,2.91,7.58,2.9,7.58-.16.46.26,1.69.3,2.23.05.79.04,1.58-.05,2.37-.16,1.51-.6,3-1.36,4.33-.78,1.37-1.89,2.52-3.2,3.39-.54.36-1.14.58-1.59,1.06-.44.47-.72,1.06-1.03,1.61-.29.52-.64,1.26-1.28,1.43-.67.18-1.35-.56-1.74-1-.38-.42-.82-.84-1.08-1.35-.3-.59.04-.87.31-1.4.25-.49.48-1.01.75-1.49.02-.04.05-.09.07-.14.14-.29.28-.64.49-.84.22-.2.51-.18.78-.27.65-.22,1.68-.66,2.03-1.29.18-.32.33-.67.37-1.03.17-1.53-2.15-2.44-3.12-1.27-.15.18-.26.41-.39.61-.23.36-.46.72-.68,1.07.11-2.94,1.2-5.02,1.91-6.06.35-.51.6-.78.6-.78,0,0-8.32-1.63-10.51-2.61,0,0-.02-.01-.03-.02-3.32-1.12-6.51-3.89-6.76-6.73Z"/>
          <path class="cls-30" d="m374.85,210.33s-6.82,15.53-21.47,17.74l.58-6.44s17.25-3.16,20.9-11.3Z"/>
          <path class="cls-7" d="m372.75,227.35s2.24,24.52,1.81,27.54"/>
          <path class="cls-7" d="m383.61,254.17s-11.3,1.43-28.66,1.43"/>
          <g>
            <path class="cls-49" d="m302.43,197.36s-5.43-3.77-6.92-9.96c-.28-1.18,1.11-2.06,2.08-1.32l4.96,3.79-3.14-4.57s1.71-.99,3.74,1.8l.6.81c.7.94,1.51,1.8,2.32,2.65.66.7,1.4,1.86,1.11,3.45l-4.74,3.36Z"/>
            <path class="cls-41" d="m307.67,193.25c-.18.13,5.66,5.31,6.18,5.72,6.13,4.82,12.88,8.73,20.55,10.39,7.5,1.62,15.4,1.18,22.68-1.26,1.49-.5,2.94-1.08,4.37-1.73,0,0,5.68-3.72,9.11-2.1,6.7,3.15,5.11,10.94.6,14.42-.55.43-1.37.94-2.39,1.5-17.87,9.94-40.23,6.25-54.42-8.46-3.29-3.41-6.81-7.2-10.48-11.36l-2.29-2.92s6.09-4.2,6.09-4.2Z"/>
            <line class="cls-7" x1="309.02" y1="195.74" x2="304" y2="198.97"/>
          </g>
          <path class="cls-7" d="m368.72,195.74s-8.2,3.58-9.23,4.14"/>
          <path class="cls-41" d="m355.64,208.55c.67-.38,1.38-.64,2.09-.91.72-.24,1.44-.48,2.2-.61-.67.38-1.38.64-2.09.91-.72.24-1.44.48-2.2.61Z"/>
          <path class="cls-7" d="m373.68,215.82s-6.89,8.52-20.06,9.48"/>
          <line class="cls-7" x1="369.93" y1="219.29" x2="373.8" y2="218.85"/>
          <polygon class="cls-49" points="384.78 361.52 378.9 361.52 378.42 359.11 384.88 359.11 384.78 361.52"/>
          <polygon class="cls-49" points="366.22 356.79 359.35 356.79 359.62 359.3 366.16 359.22 366.22 356.79"/>
        </g>
      </g>
      <g>
        <g>
          <g>
            <path class="cls-28" d="m281.76,217.15c-4.66-.43-7.09,1.61-8.16,2.95-.45.56-.71,1.25-.77,1.97h0c-.24,2.8-1.16,5.53-2.89,7.74-.23.29-.47.57-.71.85-.11.12-.08.31.06.39l1.97,1.14c.28.17-.06,1.31-.11,1.55-.43,2.12-.57,4.31-.78,6.45-.06.64.3.97.88,1.17.98.33,1.99.58,3.01.77.26.05,3.06.28,3.06.26.12.52.08,1.14.08,1.67,0,.73,0,1.46,0,2.18h11.36v-6.75c.18-7.45-.18-21.71-6.99-22.34Z"/>
            <path class="cls-49" d="m234.36,281.9s-6.53-1.77-10.1-7.23c-.68-1.04.37-2.36,1.55-1.99l6.08,1.95-4.6-3.33s1.31-1.54,4.23.45l.85.57c1,.67,2.07,1.22,3.14,1.76.88.44,1.99,1.32,2.26,2.95l-3.42,4.87Z"/>
            <path class="cls-40" d="m291.09,244.94s-5.36-3.3-14.15,0l-2.05,4.07,16.82-.91-.61-3.16Z"/>
            <path class="cls-40" d="m298.47,251.81s8.34,17.51,12.2,37.94c0,0-2.96,14.71-7.9,21.39-5.5-18.72-9.17-38.38-9.17-38.38l4.87-20.94Z"/>
            <path class="cls-52" d="m298.47,251.81s-9.31-10.11-28.59-1.96l-3.19,62.39h36.11s1.74-35.7-4.33-60.43Z"/>
            <path class="cls-35" d="m277.91,416.47l-6.25-.04s-14.57,3.37-11.74,6.55c0,0,9.76.91,12.26-.08l.08.6,5.7-.3-.05-6.72Z"/>
            <path class="cls-35" d="m309.43,416.47l-6.25-.04s-14.57,3.37-11.74,6.55c0,0,9.76.91,12.26-.08l.08.6,5.7-.3-.05-6.72Z"/>
            <path class="cls-41" d="m270.74,416.74s1.91,2.15,6.88,1.79c0,0,7.48-28.01,4.97-50.85l2.13-34.61s5.6,35.3,7.76,41.04,8.65,39.17,10.28,42.35c1.63,3.18,4.95,2.07,6.66.85,0,0,1.04-35.12-5.36-49.06.58-22.02.95-43.35-1.27-56.01h-36.11s4.06,104.5,4.06,104.5Z"/>
            <path class="cls-34" d="m284.54,327.25h0c.81-1.48,2.03-2.7,3.51-3.52l8.73-4.81-1.5,1.56c-3.26,3.39-5.02,7.95-4.87,12.66l1.18,38.06-7.95-37.8c-.44-2.09-.12-4.27.91-6.14Z"/>
            <path class="cls-49" d="m270.74,416.74l-.08-1.52s5.19,1.77,7.53,1l-.27,2.18s-6.35.68-7.18-1.67Z"/>
            <path class="cls-49" d="m302.64,416.17s2.63,1.19,6.81-.27l.03,1.58s-5.03,3.32-6.84-1.32Z"/>
            <line class="cls-9" x1="270.72" y1="317.99" x2="271.74" y2="360.82"/>
            <line class="cls-9" x1="293.33" y1="371.2" x2="302.64" y2="408.96"/>
            <line class="cls-7" x1="273.23" y1="287.28" x2="273.23" y2="306.93"/>
            <path class="cls-7" d="m268.13,306.57s22.12,1.6,32.17,0"/>
            <path class="cls-7" d="m301.25,267.61s1.81,15.43,1.78,21.83"/>
            <path class="cls-40" d="m268.13,284.1s6.96-4.91,9.68-14.61c0,0,2.5,15.56-9.68,14.61Z"/>
            <path class="cls-52" d="m269.86,249.86s-5.11,26.23-15.87,29.71c-.41.13-.8.25-1.19.35-5.13,1.37-10.61-.1-14.61-3.59h-.01s-4.99,5.7-4.99,5.7l3.2,2.8s8.21,7.51,20.56,4.86c15.87-3.4,20.87-20.19,20.87-20.19,0,0,2.41-17.06-7.95-19.64Z"/>
            <line class="cls-7" x1="239.43" y1="279.45" x2="236.91" y2="282.82"/>
            <path class="cls-7" d="m277.81,269.5s-1.42,8.13-9.68,14.61"/>
            <path class="cls-41" d="m276.93,272.62c.28-.28.62-.46.96-.64.35-.15.7-.31,1.09-.35-.28.29-.62.46-.96.64-.35.15-.7.31-1.09.35Z"/>
            <path class="cls-7" d="m275.65,247.9s9.03-2.48,14.13-.63"/>
            <path class="cls-34" d="m273.09,228.5c-.06.57.18,1.07.54,1.11.36.04.71-.39.77-.96.06-.57-.18-1.07-.54-1.11-.36-.04-.71.39-.77.96Z"/>
            <path class="cls-16" d="m272.7,226.28c0-.06,1.21-.35,3.16.63"/>
            <path class="cls-48" d="m270.91,231.94s1.26-.69,1.5-.96c.24-.27-.39.94-.97,1.42l-.53-.46Z"/>
            <path class="cls-14" d="m271.44,235.29s1.9.41,2.81-.96"/>
            <path class="cls-34" d="m279,230.38c-.07.25,0,.5.18.55.17.05.36-.12.43-.37.07-.25,0-.5-.18-.55-.17-.05-.36.12-.44.37Z"/>
            <path class="cls-45" d="m292.86,237.39c3.05-3.3,7.79-9.21,5.03-18.66-2.49-8.53-10.06-9.03-13.73-8.89-1.14.04-2.17-.67-2.5-1.76v-.04c-.32-.99-1.4-1.55-2.37-1.2-2.18.77-3.03,2.43-3.36,3.61-.14.51-.78.66-1.15.31-.93-.87-2.35-.8-2.97.31-1.72,3.09-.19,6.45-.19,6.45-1.44-.07-2.45,1.49-1.71,2.73,1.25,2.11,3.8,2.93,5.26,3.23.66.14,1.16.67,1.26,1.34l.88,6.2c.18-.49.36-.98.54-1.47.19-.51.41-1.8.97-1.97,1.59-.48,3.01.62,2.77,2.29-.38,2.63-3.07,2.64-3.07,2.64l.27,1.58c.59,3.48,3.6,6.02,7.13,6.02h.66c.74,0,1.4.44,1.69,1.12l.54,1.25,1.02-1.99c.13-.25.32-.47.54-.65.48-.38.91-.78,1.35-1.2.03-.03.06-.07.09-.1.38-.38.74-.76,1.07-1.14Z"/>
          </g>
          <g>
            <path class="cls-41" d="m225.28,263.74h.69c.52,0,.95.43.95.95v12.87h-2.59v-12.87c0-.52.43-.95.95-.95Z" transform="translate(577.57 253.42) rotate(127.01)"/>
            <path class="cls-41" d="m220.89,265.46l-2.79-.81c-.25-.07-.45.2-.31.41l1.54,2.46,1.56-2.07Z"/>
            <polygon class="cls-28" points="219.16 264.96 220.89 265.46 219.33 267.53 218.37 266.01 219.16 264.96"/>
          </g>
        </g>
        <g>
          <path class="cls-52" d="m192.2,280.68h5.93c4.51,0,8.16,3.66,8.16,8.16v110.57h-22.25v-110.57c0-4.51,3.66-8.16,8.16-8.16Z" transform="translate(293.08 719.69) rotate(-164.61)"/>
          <path class="cls-52" d="m221.64,285.76l-2.39-24.84c-.21-2.18-3-2.95-4.3-1.18l-14.76,20.12,21.45,5.9Z"/>
          <polygon class="cls-28" points="220.17 270.43 221.64 285.76 200.19 279.86 209.3 267.44 220.17 270.43"/>
        </g>
      </g>
    </g>
    <g>
      <path class="cls-37" d="m76.97,207.7c-.87,0-1.7.13-2.49.37.32-.91.51-1.89.51-2.92,0-4.82-3.91-8.73-8.73-8.73s-8.73,3.91-8.73,8.73c0,.91.14,1.78.39,2.6-.3-.03-.61-.05-.92-.05-4.82,0-8.73,3.91-8.73,8.73,0,4.51,3.42,8.22,7.81,8.68h0s0,0,0,0c.3.03.61.05.92.05s.59-.02.88-.04l19.09.04c4.82,0,8.73-3.91,8.73-8.73s-3.91-8.73-8.73-8.73Z"/>
      <path class="cls-2" d="m474.98,235.04c-.87,0-1.7.13-2.5.37.32-.91.51-1.89.51-2.92,0-4.82-3.91-8.73-8.73-8.73s-8.73,3.91-8.73,8.73c0,.91.14,1.78.39,2.6-.3-.03-.61-.05-.92-.05-4.82,0-8.73,3.91-8.73,8.73,0,4.51,3.42,8.22,7.81,8.68h0s0,0,0,0c.3.03.61.05.92.05s.59-.02.88-.04l19.09.04c4.82,0,8.73-3.91,8.73-8.73s-3.91-8.73-8.73-8.73Z"/>
      <path class="cls-3" d="m184.35,106.44c-.87,0-1.7.13-2.49.37.32-.91.51-1.89.51-2.92,0-4.82-3.91-8.73-8.73-8.73s-8.73,3.91-8.73,8.73c0,.91.14,1.78.39,2.6-.3-.03-.61-.05-.92-.05-4.82,0-8.73,3.91-8.73,8.73,0,4.51,3.42,8.22,7.81,8.68h0s0,0,0,0c.3.03.61.05.92.05s.59-.02.88-.04l19.09.04c4.82,0,8.73-3.91,8.73-8.73s-3.91-8.73-8.73-8.73Z"/>
      <path class="cls-37" d="m376.92,128.8c-.66,0-1.3.1-1.91.28.25-.7.39-1.45.39-2.23,0-3.69-2.99-6.68-6.68-6.68s-6.68,2.99-6.68,6.68c0,.69.11,1.36.3,1.99-.23-.02-.47-.04-.7-.04-3.69,0-6.68,2.99-6.68,6.68,0,3.45,2.62,6.29,5.98,6.65h0s0,0,0,0c.23.02.46.04.7.04s.45-.01.68-.03l14.61.03c3.69,0,6.68-2.99,6.68-6.68s-2.99-6.68-6.68-6.68Z"/>
    </g>
    <g>
      <g>
        <path class="cls-47" d="m171.66,401.14s-6.6-3.48-5.97-6.83c.62-3.35,6.75,1.16,6.75,1.16,0,0-11.53-15.41,5.1-24.58,15.01-8.27,12.03,22.5,12.03,22.5,0,0,3.39-4.19,6.82-3.29,4.43,1.17-4.1,11.03-4.1,11.03,0,0-7.2.64-20.63,0Z"/>
        <path class="cls-8" d="m181.97,394.32s.12-10.14,3.65-10.26c3.54-.12,1.1,14.15,1.1,14.15,0,0,2.81-9.64,5.25-9.39,2.44.24-2.07,11.34-2.07,11.34,0,0,1.22-2.15,2.8-1.83,1.57.32-2.07,4.76-2.07,4.76,0,0-6.28,2.77-15.61,0,0,0-5.97-3.62-4.27-5.61,1.7-1.99,5.12,1.67,5.12,1.67,0,0-5.49-13.39-1.59-16.8,0,0,3.42-4.29,7.69,11.97Z"/>
      </g>
      <g>
        <path class="cls-47" d="m360.13,431.93s-11.34-5.98-10.27-11.73c1.07-5.75,11.61,1.99,11.61,1.99,0,0-19.81-26.48,8.77-42.24,25.79-14.22,20.67,38.68,20.67,38.68,0,0,5.82-7.2,11.72-5.65,7.62,2-7.05,18.95-7.05,18.95,0,0-12.38,1.11-35.46,0Z"/>
        <path class="cls-8" d="m377.85,420.2s.2-17.43,6.28-17.64c6.08-.21,1.89,24.32,1.89,24.32,0,0,4.82-16.56,9.02-16.14,4.19.42-3.56,19.5-3.56,19.5,0,0,2.1-3.7,4.81-3.15,2.7.55-3.55,8.18-3.55,8.18,0,0-10.8,4.76-26.84,0,0,0-10.26-6.22-7.34-9.64,2.92-3.43,8.81,2.88,8.81,2.88,0,0-9.43-23.01-2.73-28.88,0,0,7.49-6.36,13.22,20.58Z"/>
      </g>
    </g>
    <g>
      <g>
        <g>
          <path class="cls-29" d="m150.53,362.06s-19.37-33.09-13.61-55.31l10.69,5.9-9.05-15.32s17.86-22.45,35.18-1.71l-10.78,9.76,14.41-2.1-.2,13.02-16.33,10.09,13.02-1.57s-7.67,24.89-23.34,37.24Z"/>
          <line class="cls-19" x1="154.28" y1="308.32" x2="149.88" y2="374.95"/>
        </g>
        <g>
          <path class="cls-20" d="m146.73,366.21s-25.98-12.39-31.76-28.61l9.13-.84-12.08-5.7s1.63-21.47,21.13-15.88l-2.58,10.6,8.07-7.38,5.36,8.17-5.89,13.15,7.43-6.46s5.72,18.69,1.19,32.96Z"/>
          <line class="cls-24" x1="126.42" y1="331.25" x2="151.76" y2="374.49"/>
        </g>
      </g>
      <path class="cls-51" d="m144.7,372.72s8.75-7.34,10.56-2.87c1.81,4.47,3.09,13.97,1.83,13.56-1.26-.41-12.39-10.69-12.39-10.69Z"/>
    </g>
    <path class="cls-42" d="m280.75,312.98c1.93,0,1.93-3,0-3s-1.93,3,0,3h0Z"/>
  </g>
</svg>